<svg xmlns="http://www.w3.org/2000/svg" width="256" height="256" viewBox="0 0 100 100"><rect width="100" height="100" rx="50" fill="#151d2f"></rect><path d="M50.29 61.42L50.29 61.42Q52.98 61.42 54.74 60.88Q56.50 60.34 57.26 59.82L57.26 59.82L57.26 50.54L49.33 51.38Q46 51.70 44.40 52.88Q42.80 54.06 42.80 56.37L42.80 56.37Q42.80 58.80 44.66 60.11Q46.51 61.42 50.29 61.42ZM50.22 34.35L50.22 34.35Q55.79 34.35 59.06 36.85Q62.32 39.34 62.32 44.72L62.32 44.72L62.32 59.89Q62.32 61.30 61.78 62.03Q61.23 62.77 60.14 63.41L60.14 63.41Q58.61 64.30 56.08 64.98Q53.55 65.65 50.29 65.65L50.29 65.65Q44.27 65.65 40.98 63.28Q37.68 60.91 37.68 56.43L37.68 56.43Q37.68 52.21 40.43 50.06Q43.18 47.92 48.18 47.41L48.18 47.41L57.26 46.51L57.26 44.72Q57.26 41.52 55.34 40.05Q53.42 38.58 50.16 38.58L50.16 38.58Q47.47 38.58 45.10 39.34Q42.74 40.11 40.88 41.07L40.88 41.07Q40.37 40.62 39.95 40.05Q39.54 39.47 39.54 38.77L39.54 38.77Q39.54 37.87 39.98 37.30Q40.43 36.72 41.39 36.21L41.39 36.21Q43.12 35.31 45.36 34.83Q47.60 34.35 50.22 34.35Z" fill="#fff"></path></svg>